<svg xmlns="http://www.w3.org/2000/svg" viewBox="0 0 378.08 301.28"><defs><linearGradient id="prefix__a" x1="361.03" y1="633.85" x2="691.41" y2="371.6" gradientTransform="matrix(1 0 0 -1 0 1026)" gradientUnits="userSpaceOnUse"><stop offset="0" stop-color="#9013fe"/><stop offset="1" stop-color="#6610f2"/></linearGradient><linearGradient id="prefix__b" x1="462.63" y1="581.7" x2="536.48" y2="456.81" gradientTransform="matrix(1 0 0 -1 0 1026)" gradientUnits="userSpaceOnUse"><stop offset="0" stop-color="#fff"/><stop offset="1" stop-color="#f1e5fc"/></linearGradient></defs><path d="M364.67 400.73c-.71-20.48 15.25-39.37 36.82-39.37h221.05c21.57 0 37.53 18.89 36.82 39.37-.69 19.68.2 45.17 6.62 65.95s17.29 34 35.06 35.72v19.2c-17.77 1.69-28.63 14.87-35.06 35.72s-7.3 46.27-6.62 66c.71 20.48-15.25 39.37-36.82 39.37H401.49c-21.57 0-37.53-18.89-36.82-39.37.68-19.68-.21-45.17-6.62-66s-17.31-34-35.09-35.72v-19.2c17.77-1.69 28.65-14.87 35.09-35.72s7.3-46.27 6.62-65.95z" transform="translate(-322.96 -361.36)" fill="url(#prefix__a)"/><path d="M520.2 592.09c34.93 0 56-17.1 56-45.31 0-21.32-15-36.76-37.31-39.2v-.89c16.38-2.67 29.24-17.88 29.24-34.87 0-24.21-19.11-40-48.24-40h-65.56v160.27zm-40.39-139.92h33.9c18.43 0 28.9 8.22 28.9 23.1 0 15.88-12.17 24.76-34.24 24.76h-28.56zm0 119.6V519h33.67c24.12 0 36.63 8.88 36.63 26.21s-12.16 26.56-35.11 26.56z" transform="translate(-322.96 -361.36)" stroke="#fff" fill="url(#prefix__b)"/></svg>