<svg width="168" height="168" viewBox="0 0 168 168" fill="none" xmlns="http://www.w3.org/2000/svg">
<g filter="url(#filter0_d_4_5)">
<circle cx="84" cy="80" r="80" fill="#0000FF"/>
</g>
<g filter="url(#filter1_d_4_5)">
<path d="M85.848 129.64C79.192 129.64 73.2187 128.104 67.928 125.032C62.6373 121.875 58.4133 117.651 55.256 112.36C52.184 106.984 50.6053 100.968 50.52 94.312V34.536C50.52 32.8293 50.9893 31.5067 51.928 30.568C52.952 29.544 54.3173 29.032 56.024 29.032C57.6453 29.032 58.9253 29.544 59.864 30.568C60.888 31.5067 61.4 32.8293 61.4 34.536V71.144C64.216 67.304 67.8853 64.232 72.408 61.928C76.9307 59.5387 81.9653 58.344 87.512 58.344C93.9973 58.344 99.8 59.9227 104.92 63.08C110.04 66.152 114.051 70.376 116.952 75.752C119.939 81.128 121.432 87.1867 121.432 93.928C121.432 100.755 119.853 106.856 116.696 112.232C113.624 117.608 109.4 121.875 104.024 125.032C98.7333 128.104 92.6747 129.64 85.848 129.64ZM85.848 119.912C90.6267 119.912 94.8933 118.76 98.648 116.456C102.488 114.152 105.475 111.08 107.608 107.24C109.827 103.315 110.936 98.8773 110.936 93.928C110.936 89.064 109.827 84.6693 107.608 80.744C105.475 76.8187 102.488 73.7467 98.648 71.528C94.8933 69.224 90.6267 68.072 85.848 68.072C81.24 68.072 77.016 69.224 73.176 71.528C69.4213 73.7467 66.4773 76.8187 64.344 80.744C62.2107 84.6693 61.144 89.064 61.144 93.928C61.144 98.8773 62.2107 103.315 64.344 107.24C66.4773 111.08 69.4213 114.152 73.176 116.456C77.016 118.76 81.24 119.912 85.848 119.912Z" fill="#FCCA3F"/>
<path d="M67.928 125.032L66.3906 127.608L66.4061 127.617L66.4216 127.626L67.928 125.032ZM55.256 112.36L52.6513 113.848L52.6653 113.873L52.6799 113.897L55.256 112.36ZM50.52 94.312H47.52V94.3312L47.5202 94.3505L50.52 94.312ZM51.928 30.568L49.8067 28.4467L49.8067 28.4467L51.928 30.568ZM59.864 30.568L57.6525 32.5952L57.7407 32.6913L57.8368 32.7795L59.864 30.568ZM61.4 71.144H58.4V80.3079L63.8192 72.9181L61.4 71.144ZM72.408 61.928L73.7698 64.6011L73.7896 64.591L73.8094 64.5806L72.408 61.928ZM104.92 63.08L103.345 65.6335L103.361 65.6431L103.377 65.6525L104.92 63.08ZM116.952 75.752L114.312 77.1768L114.321 77.1929L114.33 77.2089L116.952 75.752ZM116.696 112.232L114.109 110.713L114.1 110.728L114.091 110.744L116.696 112.232ZM104.024 125.032L105.53 127.626L105.537 127.623L105.543 127.619L104.024 125.032ZM98.648 116.456L97.1045 113.884L97.0917 113.891L97.079 113.899L98.648 116.456ZM107.608 107.24L104.996 105.764L104.991 105.773L104.986 105.783L107.608 107.24ZM107.608 80.744L104.972 82.1765L104.984 82.1985L104.996 82.2202L107.608 80.744ZM98.648 71.528L97.079 74.085L97.1128 74.1057L97.1472 74.1256L98.648 71.528ZM73.176 71.528L74.7022 74.1108L74.7109 74.1057L74.7195 74.1005L73.176 71.528ZM64.344 80.744L66.9799 82.1765L66.9799 82.1765L64.344 80.744ZM64.344 107.24L61.7081 108.673L61.7148 108.685L61.7215 108.697L64.344 107.24ZM73.176 116.456L71.607 119.013L71.6197 119.021L71.6325 119.028L73.176 116.456ZM85.848 126.64C79.6731 126.64 74.2277 125.221 69.4344 122.438L66.4216 127.626C72.2096 130.987 78.7109 132.64 85.848 132.64V126.64ZM69.4654 122.456C64.6017 119.553 60.7347 115.686 57.8321 110.823L52.6799 113.897C56.092 119.615 60.673 124.196 66.3906 127.608L69.4654 122.456ZM57.8607 110.872C55.0601 105.971 53.5991 100.46 53.5198 94.2735L47.5202 94.3505C47.6116 101.476 49.3079 107.997 52.6513 113.848L57.8607 110.872ZM53.52 94.312V34.536H47.52V94.312H53.52ZM53.52 34.536C53.52 33.3872 53.8216 32.917 54.0493 32.6893L49.8067 28.4467C48.157 30.0963 47.52 32.2715 47.52 34.536H53.52ZM54.0493 32.6893C54.4111 32.3275 54.9601 32.032 56.024 32.032V26.032C53.6746 26.032 51.4929 26.7605 49.8067 28.4467L54.0493 32.6893ZM56.024 32.032C56.9583 32.032 57.3784 32.2961 57.6525 32.5952L62.0755 28.5408C60.4723 26.7919 58.3323 26.032 56.024 26.032V32.032ZM57.8368 32.7795C58.1032 33.0236 58.4 33.4632 58.4 34.536H64.4C64.4 32.1955 63.6728 29.9897 61.8912 28.3565L57.8368 32.7795ZM58.4 34.536V71.144H64.4V34.536H58.4ZM63.8192 72.9181C66.3397 69.4811 69.6368 66.7066 73.7698 64.6011L71.0462 59.2549C66.1339 61.7574 62.0923 65.1269 58.9808 69.3699L63.8192 72.9181ZM73.8094 64.5806C77.8643 62.4383 82.4116 61.344 87.512 61.344V55.344C81.5191 55.344 75.997 56.639 71.0066 59.2754L73.8094 64.5806ZM87.512 61.344C93.4864 61.344 98.7357 62.7909 103.345 65.6335L106.495 60.5265C100.864 57.0544 94.5083 55.344 87.512 55.344V61.344ZM103.377 65.6525C108.023 68.4407 111.66 72.2634 114.312 77.1768L119.592 74.3272C116.441 68.4886 112.057 63.8633 106.463 60.5075L103.377 65.6525ZM114.33 77.2089C117.045 82.0973 118.432 87.6463 118.432 93.928H124.432C124.432 86.7271 122.832 80.1587 119.574 74.2951L114.33 77.2089ZM118.432 93.928C118.432 100.273 116.971 105.84 114.109 110.713L119.283 113.751C122.736 107.872 124.432 101.237 124.432 93.928H118.432ZM114.091 110.744C111.281 115.662 107.433 119.551 102.505 122.445L105.543 127.619C111.367 124.198 115.967 119.554 119.301 113.72L114.091 110.744ZM102.518 122.438C97.7359 125.214 92.2083 126.64 85.848 126.64V132.64C93.141 132.64 99.7308 130.994 105.53 127.626L102.518 122.438ZM85.848 122.912C91.1319 122.912 95.9505 121.631 100.217 119.013L97.079 113.899C93.8362 115.889 90.1215 116.912 85.848 116.912V122.912ZM100.191 119.028C104.474 116.459 107.836 113.006 110.23 108.697L104.986 105.783C103.113 109.154 100.502 111.845 97.1045 113.884L100.191 119.028ZM110.22 108.716C112.717 104.297 113.936 99.3428 113.936 93.928H107.936C107.936 98.4119 106.936 102.332 104.996 105.764L110.22 108.716ZM113.936 93.928C113.936 88.5887 112.713 83.6787 110.22 79.2678L104.996 82.2202C106.941 85.66 107.936 89.5393 107.936 93.928H113.936ZM110.244 79.3115C107.849 74.9044 104.471 71.4276 100.149 68.9304L97.1472 74.1256C100.505 76.0657 103.101 78.7329 104.972 82.1765L110.244 79.3115ZM100.217 68.971C95.9504 66.3529 91.1319 65.072 85.848 65.072V71.072C90.1215 71.072 93.8362 72.0951 97.079 74.085L100.217 68.971ZM85.848 65.072C80.7128 65.072 75.9527 66.3634 71.6325 68.9555L74.7195 74.1005C78.0793 72.0846 81.7672 71.072 85.848 71.072V65.072ZM71.6498 68.9452C67.4162 71.4469 64.0939 74.9216 61.7081 79.3115L66.9799 82.1765C68.8608 78.7157 71.4265 76.0464 74.7022 74.1108L71.6498 68.9452ZM61.7081 79.3115C59.315 83.7148 58.144 88.6091 58.144 93.928H64.144C64.144 89.5189 65.1063 85.6239 66.9799 82.1765L61.7081 79.3115ZM58.144 93.928C58.144 99.3227 59.3109 104.262 61.7081 108.673L66.9799 105.807C65.1105 102.368 64.144 98.432 64.144 93.928H58.144ZM61.7215 108.697C64.1063 112.989 67.4137 116.44 71.607 119.013L74.7451 113.899C71.429 111.864 68.8484 109.171 66.9665 105.783L61.7215 108.697ZM71.6325 119.028C75.9527 121.621 80.7128 122.912 85.848 122.912V116.912C81.7672 116.912 78.0793 115.899 74.7195 113.884L71.6325 119.028Z" fill="#FCCA3F"/>
</g>
<defs>
<filter id="filter0_d_4_5" x="0" y="0" width="168" height="168" filterUnits="userSpaceOnUse" color-interpolation-filters="sRGB">
<feFlood flood-opacity="0" result="BackgroundImageFix"/>
<feColorMatrix in="SourceAlpha" type="matrix" values="0 0 0 0 0 0 0 0 0 0 0 0 0 0 0 0 0 0 127 0" result="hardAlpha"/>
<feOffset dy="4"/>
<feGaussianBlur stdDeviation="2"/>
<feComposite in2="hardAlpha" operator="out"/>
<feColorMatrix type="matrix" values="0 0 0 0 0 0 0 0 0 0 0 0 0 0 0 0 0 0 0.25 0"/>
<feBlend mode="normal" in2="BackgroundImageFix" result="effect1_dropShadow_4_5"/>
<feBlend mode="normal" in="SourceGraphic" in2="effect1_dropShadow_4_5" result="shape"/>
</filter>
<filter id="filter1_d_4_5" x="46.52" y="29.032" width="78.912" height="108.608" filterUnits="userSpaceOnUse" color-interpolation-filters="sRGB">
<feFlood flood-opacity="0" result="BackgroundImageFix"/>
<feColorMatrix in="SourceAlpha" type="matrix" values="0 0 0 0 0 0 0 0 0 0 0 0 0 0 0 0 0 0 127 0" result="hardAlpha"/>
<feOffset dy="4"/>
<feGaussianBlur stdDeviation="2"/>
<feComposite in2="hardAlpha" operator="out"/>
<feColorMatrix type="matrix" values="0 0 0 0 0 0 0 0 0 0 0 0 0 0 0 0 0 0 0.25 0"/>
<feBlend mode="normal" in2="BackgroundImageFix" result="effect1_dropShadow_4_5"/>
<feBlend mode="normal" in="SourceGraphic" in2="effect1_dropShadow_4_5" result="shape"/>
</filter>
</defs>
</svg>
